HIERARCHY
ROOT Hips
{
	OFFSET 0.00000 0.00000 0.00000
	CHANNELS 6 Xposition Yposition Zposition Zrotation Yrotation Xrotation 
	JOINT LHipJoint
	{
		OFFSET 0 0 0
		CHANNELS 3 Zrotation Yrotation Xrotation
		JOINT LeftHip
		{
			OFFSET 1.48416 -1.82041 0.59464
			CHANNELS 3 Zrotation Yrotation Xrotation
			JOINT LeftKnee
			{
				OFFSET 2.43280 -6.68407 0.00000
				CHANNELS 3 Zrotation Yrotation Xrotation
				JOINT LeftAnkle
				{
					OFFSET 2.68325 -7.37216 0.00000
					CHANNELS 3 Zrotation Yrotation Xrotation
					JOINT LeftToe
					{
						OFFSET 0.15365 -0.42214 1.91990
						CHANNELS 3 Zrotation Yrotation Xrotation
						End Site
						{
							OFFSET 0.00000 -0.00000 0.99320
						}
					}
				}
			}
		}
	}
	JOINT RHipJoint
	{
		OFFSET 0 0 0
		CHANNELS 3 Zrotation Yrotation Xrotation
		JOINT RightHip
		{
			OFFSET -1.70852 -1.82040 0.59464
			CHANNELS 3 Zrotation Yrotation Xrotation
			JOINT RightKnee
			{
				OFFSET -2.50396 -6.87957 0.00000
				CHANNELS 3 Zrotation Yrotation Xrotation
				JOINT RightAnkle
				{
					OFFSET -2.67204 -7.34139 0.00000
					CHANNELS 3 Zrotation Yrotation Xrotation
					JOINT RightToe
					{
						OFFSET -0.17346 -0.47657 2.02009
						CHANNELS 3 Zrotation Yrotation Xrotation
						End Site
						{
							OFFSET -0.00000 -0.00000 1.04609
						}
					}
				}
			}
		}
	}
	JOINT lowerback
	{
		OFFSET 0 0 0
		CHANNELS 3 Zrotation Yrotation Xrotation
		JOINT Chest
		{
			OFFSET -0.01022 1.99636 -0.30653
			CHANNELS 3 Zrotation Yrotation Xrotation
			JOINT Chest2
			{
				OFFSET -0.01683 2.01212 0.04808
				CHANNELS 3 Zrotation Yrotation Xrotation
				JOINT lowerneck
				{
					OFFSET 0 0 0
					CHANNELS 3 Zrotation Yrotation Xrotation
					JOINT Neck
					{
						OFFSET -0.03080 1.91178 0.03911
						CHANNELS 3 Zrotation Yrotation Xrotation
						JOINT Head
						{
							OFFSET 0.10605 1.89839 -0.23433
							CHANNELS 3 Zrotation Yrotation Xrotation
							End Site
							{
								OFFSET 0.03474 1.92469 -0.08609
							}
						}
					}
				}
				JOINT LeftCollar
				{
					OFFSET 0 0 0
					CHANNELS 3 Zrotation Yrotation Xrotation
					JOINT LeftShoulder
					{
						OFFSET 3.78977 1.27972 -0.24661
CHANNELS 3 Zrotation Xrotation Yrotation
						JOINT LeftElbow
						{
OFFSET 0 -5.641470 -0.000000
CHANNELS 3 Zrotation Xrotation Yrotation
							JOINT LeftWrist
							{
OFFSET 0 -2.864440 -0.000000
CHANNELS 3 Zrotation Xrotation Yrotation
								JOINT lhand
								{
									OFFSET 0 0 0
CHANNELS 3 Zrotation Xrotation Yrotation
									JOINT LFingers
									{
OFFSET 0 -0.722120 -0.000000
CHANNELS 3 Zrotation Xrotation Yrotation
										End Site
										{
OFFSET 0 -0.582190 -0.000000
										}
									}
								}
								JOINT LThumb
								{
OFFSET 0 0.000000 0.000000
CHANNELS 3 Zrotation Xrotation Yrotation
									End Site
									{
OFFSET 0 -0.591080 0.591080
									}
								}
							}
						}
					}
				}
				JOINT RightCollar
				{
					OFFSET 0 0 0
					CHANNELS 3 Zrotation Yrotation Xrotation
					JOINT RightShoulder
					{
						OFFSET -3.41176 1.18605 -0.57927
CHANNELS 3 Zrotation Xrotation Yrotation
						JOINT RightElbow
						{
OFFSET 0 -5.447290 -0.000000
CHANNELS 3 Zrotation Xrotation Yrotation
							JOINT RightWrist
							{
OFFSET 0 -3.088210 -0.000000
CHANNELS 3 Zrotation Xrotation Yrotation
								JOINT rhand
								{
									OFFSET 0 0 0
CHANNELS 3 Zrotation Xrotation Yrotation
									JOINT RFingers
									{
OFFSET 0 -0.821050 -0.000000
CHANNELS 3 Zrotation Xrotation Yrotation
										End Site
										{
OFFSET 0 -0.661950 -0.000000
										}
									}
								}
								JOINT RThumb
								{
OFFSET 0 0.000000 0.000000
CHANNELS 3 Zrotation Xrotation Yrotation
									End Site
									{
OFFSET 0 -0.672060 0.672060
									}
								}
							}
						}
					}
				}
			}
		}
	}
}
MOTION
Frames: 4
Frame Time: 0.008333333333333333
3.478721 17.643393 0.056100 37.495935 92.679994 36.601085 0.000000 0.000000 0.000000 -14.758311 -0.336499 -2.304493 0.739537 5.493590 15.321897 0.319194 -7.664830 -10.659083 0.002382 -0.314393 -0.863891 0.000000 0.000000 0.000000 20.347078 -0.833871 1.772356 -0.613180 -5.011715 13.941883 -1.273445 -1.211302 -21.794838 -0.099975 2.038070 -5.610932 2.976099 -0.066369 3.742142 -0.329353 0.137993 -4.206370 -2.027805 -0.063499 -6.476023 -4.348516 -5.554657 -8.874425 6.235834 -7.356614 4.970108 2.408120 -3.468825 3.677034 0.000000 0.000000 0.000000 146.310418 -54.043191 72.266006 62.715096 -56.986767 36.610159 1.018019 -109.504387 -13.307910 0.000000 0.000000 0.000000 -7.125000 0.000000 0.000000 -23.382733 42.025088 -1.826966 0.000000 0.000000 0.000000 -128.301517 -47.412730 -58.349955 -55.087039 -54.846509 -30.288490 3.320535 -54.112693 -14.404090 0.000000 0.000000 0.000000 7.125000 0.000000 0.000000 20.672922 16.084709 15.168417
3.476989 17.644516 0.060537 34.958524 92.614747 34.067291 0.000000 0.000000 0.000000 -14.898016 -0.322882 -2.239015 0.724199 5.437724 15.161293 0.319784 -7.545003 -10.633596 0.008748 -0.603955 -1.659672 0.000000 0.000000 0.000000 20.210905 -0.830372 1.729738 -0.617011 -5.027223 13.986227 -1.269105 -1.201034 -21.754116 -0.135704 2.366518 -6.519988 2.752895 -0.043781 4.087660 -0.352828 0.158149 -4.154471 -1.930161 -0.046580 -6.618315 -4.510502 -5.624008 -8.314638 6.533461 -7.448213 4.538121 2.545989 -3.519596 3.448430 0.000000 0.000000 0.000000 128.486344 -53.325965 59.613287 86.998312 -59.954077 57.401173 -1.087758 -110.370577 -12.841883 0.000000 0.000000 0.000000 -7.125000 0.000000 0.000000 -24.969260 41.392973 -2.389329 0.000000 0.000000 0.000000 -112.502411 -43.549986 -48.858199 -77.874321 -59.423791 -49.520165 2.820414 -54.787881 -15.317893 0.000000 0.000000 0.000000 7.125000 0.000000 0.000000 20.255828 15.220012 15.224975
3.474910 17.645200 0.064965 36.396729 92.733639 35.470818 0.000000 0.000000 0.000000 -14.733011 -0.300559 -2.273882 0.730439 5.460561 15.226995 0.312396 -7.659928 -10.566611 0.006625 -0.526918 -1.447878 0.000000 0.000000 0.000000 20.375160 -0.815040 1.890557 -0.600708 -4.961305 13.798334 -1.268761 -1.284660 -21.785122 -0.090500 1.939970 -5.339840 2.768490 -0.072175 4.723560 -0.309274 0.135864 -4.029155 -1.893196 -0.061826 -6.854025 -4.792021 -5.633933 -8.043173 7.185404 -7.470310 4.310287 2.827298 -3.516951 3.371258 0.000000 0.000000 0.000000 107.154000 -49.230622 46.476380 110.528237 -58.332130 77.677002 -2.851891 -110.252706 -14.042620 0.000000 0.000000 0.000000 -7.125000 0.000000 0.000000 -26.891619 42.297279 -1.949208 0.000000 0.000000 0.000000 -96.619119 -36.231811 -41.030511 -100.282369 -59.585231 -68.891779 2.566152 -56.024590 -16.545181 0.000000 0.000000 0.000000 7.125000 0.000000 0.000000 19.974038 14.061125 15.514405
3.480569 17.648900 0.060729 36.509291 92.751998 35.709158 0.000000 0.000000 0.000000 -14.740982 -0.433639 -2.316509 0.724004 5.436866 15.158944 0.316742 -7.582647 -10.603724 0.006009 -0.498535 -1.369909 0.000000 0.000000 0.000000 20.373730 -0.869407 1.805002 -0.587552 -4.907754 13.645542 -1.253184 -1.415546 -21.707075 -0.095643 1.989472 -5.476699 2.795321 0.006050 5.375667 -0.325436 0.255382 -3.925183 -1.941205 -0.009849 -7.114465 -4.745717 -5.782880 -7.543463 7.367292 -7.683152 3.969179 2.878358 -3.628196 3.180094 0.000000 0.000000 0.000000 85.524021 -41.272258 35.773225 125.351226 -54.702626 90.069908 -6.166125 -112.797076 -15.017124 0.000000 0.000000 0.000000 -7.125000 0.000000 0.000000 -30.027438 42.804624 -1.806265 0.000000 0.000000 0.000000 -80.368840 -25.729366 -35.268380 -116.524253 -57.162934 -82.751391 3.142340 -58.632711 -16.919235 0.000000 0.000000 0.000000 7.125000 0.000000 0.000000 20.300253 13.721344 15.961927
